<svg aria-hidden="true" style="position: absolute; width: 0; height: 0; overflow: hidden;" version="1.1" xmlns="http://www.w3.org/2000/svg" xmlns:xlink="http://www.w3.org/1999/xlink">
<defs>
<symbol id="icon-down" viewBox="0 0 32 32">
<path d="M29.246 7.281l-13.243 13.698-13.246-13.698c-0.288-0.302-0.693-0.49-1.142-0.49s-0.855 0.188-1.142 0.49l-0.001 0.001c-0.293 0.307-0.473 0.723-0.473 1.182s0.18 0.875 0.473 1.182l-0.001-0.001 14.385 14.878c0.288 0.302 0.693 0.49 1.142 0.49s0.855-0.188 1.142-0.49l0.001-0.001 14.385-14.878c0.292-0.307 0.472-0.723 0.472-1.182s-0.18-0.875-0.472-1.182l0.001 0.001c-0.288-0.302-0.692-0.489-1.141-0.489s-0.853 0.188-1.14 0.488l-0.001 0.001z"></path>
</symbol>
<symbol id="icon-fasebook" viewBox="0 0 16 32">
<path fill="#f8f8f8" style="fill: var(--color1, #f8f8f8)" d="M13.079 5.314h2.923v-5.088c-1.237-0.144-2.671-0.226-4.123-0.226-0.047 0-0.093 0-0.14 0l0.007-0c-4.213 0-7.099 2.649-7.099 7.52v4.48h-4.647v5.689h4.649v14.311h5.698v-14.311h4.46l0.708-5.689h-5.17v-3.916c0.002-1.643 0.444-2.768 2.734-2.768z"></path>
</symbol>
<symbol id="icon-instagram" viewBox="0 0 32 32">
<path fill="#f8f8f8" style="fill: var(--color1, #f8f8f8)" d="M16.316 32h-0.32c-0.14 0.001-0.306 0.001-0.473 0.001-2.324 0-4.632-0.071-6.921-0.212l0.314 0.015c-2.068-0.124-3.954-0.839-5.456-2.064-1.449-1.182-2.439-2.78-2.942-4.75-0.437-1.716-0.462-3.399-0.484-5.028-0.016-1.168-0.032-2.553-0.036-3.959 0.004-1.415 0.020-2.798 0.036-3.966 0.023-1.628 0.046-3.312 0.484-5.028 0.503-1.97 1.493-3.568 2.942-4.75 1.502-1.225 3.388-1.938 5.456-2.064 1.978-0.125 4.289-0.197 6.617-0.197 0.165 0 0.33 0 0.494 0.001l-0.026-0c0.134-0.001 0.291-0.001 0.45-0.001 2.332 0 4.648 0.071 6.945 0.212l-0.315-0.015c2.068 0.124 3.954 0.839 5.456 2.064 1.451 1.182 2.439 2.78 2.942 4.75 0.437 1.716 0.462 3.399 0.484 5.028 0.016 1.168 0.032 2.551 0.036 3.959v0.007c-0.004 1.406-0.020 2.791-0.036 3.959-0.023 1.628-0.046 3.312-0.484 5.028-0.503 1.97-1.493 3.568-2.942 4.75-1.502 1.225-3.388 1.938-5.456 2.064-2.158 0.132-4.375 0.196-6.766 0.196zM15.996 29.499c0.141 0.001 0.307 0.001 0.473 0.001 2.273 0 4.529-0.069 6.767-0.206l-0.307 0.015c1.564-0.094 2.919-0.601 4.028-1.506 1.026-0.836 1.733-1.991 2.1-3.431 0.364-1.428 0.386-2.96 0.407-4.443 0.014-1.161 0.032-2.535 0.036-3.929-0.004-1.394-0.021-2.768-0.036-3.929-0.021-1.483-0.043-3.015-0.407-4.444-0.366-1.438-1.074-2.592-2.098-3.429-1.111-0.905-2.466-1.412-4.028-1.508-1.931-0.122-4.188-0.191-6.461-0.191-0.164 0-0.329 0-0.493 0.001l0.025-0c-0.143-0.001-0.312-0.001-0.481-0.001-2.27 0-4.524 0.069-6.759 0.206l0.307-0.015c-1.564 0.096-2.919 0.604-4.028 1.508-1.026 0.836-1.733 1.991-2.1 3.431-0.364 1.428-0.386 2.96-0.407 4.443-0.014 1.161-0.032 2.537-0.036 3.932 0.004 1.388 0.021 2.764 0.036 3.925 0.021 1.483 0.043 3.015 0.407 4.443 0.366 1.44 1.074 2.596 2.098 3.431 1.111 0.905 2.466 1.412 4.028 1.506 2.201 0.135 4.468 0.196 6.928 0.19zM15.938 23.813c-4.313-0.005-7.808-3.5-7.813-7.813v-0c0.005-4.313 3.5-7.808 7.813-7.813h0c4.313 0.005 7.808 3.5 7.813 7.813v0c-0.005 4.313-3.5 7.808-7.813 7.813h-0zM15.938 10.688c-2.933 0.003-5.31 2.379-5.314 5.312v0c0.004 2.933 2.381 5.309 5.313 5.312h0c2.932-0.004 5.308-2.38 5.312-5.312v-0c-0.004-2.932-2.38-5.308-5.312-5.312h-0zM24.626 5.687c-1.036 0-1.876 0.84-1.876 1.876s0.84 1.876 1.876 1.876v0c1.036 0 1.876-0.84 1.876-1.876s-0.84-1.876-1.876-1.876v0z"></path>
</symbol>
<symbol id="icon-red-down" viewBox="0 0 32 32">
<path fill="#8d8d8d" style="fill: var(--color2, #8d8d8d)" d="M10.666 0l-7.111 7.094h5.334v12.46h3.557v-12.46h5.332l-7.111-7.094z"></path>
<path fill="#df4e3c" style="fill: var(--color3, #df4e3c)" d="M23.111 24.906v-12.46h-3.554v12.46h-5.337l7.114 7.094 7.111-7.094h-5.334z"></path>
</symbol>
<symbol id="icon-red-up" viewBox="0 0 32 32">
<path fill="#df4e3c" style="fill: var(--color3, #df4e3c)" d="M10.666 0l-7.111 7.094h5.334v12.46h3.557v-12.46h5.332l-7.111-7.094z"></path>
<path fill="#8d8d8d" style="fill: var(--color2, #8d8d8d)" d="M23.111 24.906v-12.46h-3.554v12.46h-5.337l7.114 7.094 7.111-7.094h-5.334z"></path>
</symbol>
<symbol id="icon--1" viewBox="0 0 32 32">
<path d="M29.332 13.332h-10.665v-10.665c0-1.473-1.194-2.668-2.668-2.668s-2.668 1.194-2.668 2.668v0 10.665h-10.665c-1.473 0-2.668 1.194-2.668 2.668s1.194 2.668 2.668 2.668v0h10.665v10.665c0 1.473 1.194 2.668 2.668 2.668s2.668-1.194 2.668-2.668v0-10.665h10.665c1.473 0 2.668-1.194 2.668-2.668s-1.194-2.668-2.668-2.668v0z"></path>
</symbol>
<symbol id="icon-Group-1" viewBox="0 0 176 32">
<path fill="#df4e3c" style="fill: var(--color1, #df4e3c)" d="M102.672 0h58.656c8.112 0 14.672 7.168 14.672 16s-6.56 16-14.672 16h-146.656c-8.112 0-14.672-7.168-14.672-16s6.56-16 14.672-16h88z"></path>
</symbol>
</defs>
</svg>
